<svg width="32" height="32" viewBox="0 0 32 32" fill="none" xmlns="http://www.w3.org/2000/svg">
  <rect width="32" height="32" rx="6" fill="#8B9D83"/>
  <path d="M16 8C12.5 8 10 10.5 10 14C10 16.5 11.5 18.5 13.5 19.5C13.5 19.5 14 19.8 14 20.5V23C14 23.5 14.5 24 15 24H17C17.5 24 18 23.5 18 23V20.5C18 19.8 18.5 19.5 18.5 19.5C20.5 18.5 22 16.5 22 14C22 10.5 19.5 8 16 8Z" fill="#F5F1E8"/>
  <ellipse cx="16" cy="14" rx="3" ry="4" fill="#8B9D83" opacity="0.3"/>
  <path d="M15 25H17V26C17 26.5 16.5 27 16 27C15.5 27 15 26.5 15 26V25Z" fill="#F5F1E8"/>
</svg>
